<svg fill="currentColor" xmlns="http://www.w3.org/2000/svg" width="21.7" height="21.826" viewBox="0 0 21.7 21.826">
    <g id="Home_Tab" transform="translate(.35 .476)">
        <path id="Home_Tab-2" fill="currentColor" stroke="currentColor" stroke-width="0.7px" d="M21.066 9.582L10.682 0 .3 9.582a.358.358 0 0 0-.019.509.364.364 0 0 0 .512.019L1.993 9v12h17.379V9l1.2 1.109a.364.364 0 0 0 .512-.018.358.358 0 0 0-.019-.509zM8.51 20.283v-5.76a2.173 2.173 0 0 1 4.345 0v5.76zm10.138 0h-5.069v-5.76a2.9 2.9 0 0 0-5.793 0v5.76H2.717V8.332l7.965-7.35 7.966 7.351z" data-name="Home_Tab" transform="translate(-.182)"/>
    </g>
</svg>
