<svg xmlns="http://www.w3.org/2000/svg" width="18.5" height="21.5" viewBox="0 0 18.5 21.5">
    <g id="Profile_Tab" transform="translate(.25 .25)">
        <path id="Path_159" fill="currentColor" stroke="currentColor" stroke-width="0.5px" d="M51.05 20.5a.588.588 0 0 1-.583-.592v-2.391a7.92 7.92 0 0 0-4.957-7.393 5.515 5.515 0 0 1-5.752 0 7.985 7.985 0 0 0-4.958 7.393v2.392a.583.583 0 1 1-1.166 0v-2.392a9.2 9.2 0 0 1 1.482-5.017A9.021 9.021 0 0 1 38.7 9.3 5.747 5.747 0 0 1 37 5.217a5.634 5.634 0 1 1 11.266 0 5.747 5.747 0 0 1-1.7 4.086 9.1 9.1 0 0 1 5.069 8.214v2.392a.588.588 0 0 1-.585.591zM42.633.683a4.506 4.506 0 0 0-4.467 4.533 4.468 4.468 0 1 0 8.934 0A4.506 4.506 0 0 0 42.633.683z" data-name="Path 159" transform="translate(-33.633 .5)"/>
    </g>
</svg>
